<svg xmlns="http://www.w3.org/2000/svg" width="1600" height="350" viewBox="0 0 1600 350" role="img" aria-label="Christ Logic"><title>Christ Logic</title><rect width="1600" height="350" fill="#FFFDF7"/><g transform="translate(100 10) scale(0.58928571)"><g transform="translate(20 0)"><path data-part="c" fill="#203C5B" d="M 465,105 C 374,10 230,10 136,95 C 40,180 40,330 116,425 C 141,458 165,481 195,496 L 238,453 C 205,434 182,416 166,394 C 108,320 115,206 184,143 C 253,80 362,87 422,148 Z"/><path data-part="cross" fill="#A8792E" d="M 265,153 H 327 V 232 H 405 V 293 H 327 V 468 H 430 V 529 H 265 V 293 H 188 V 232 H 265 Z"/></g></g><g fill="#203C5B" aria-label="Christ Logic" transform="translate(480.000 220.000) scale(0.16000000 -0.16000000)"><path transform="translate(0.000 0.000)" d="M505 613 481 500 470 495Q440 516 404.0 528.0Q368 540 330 540Q171 540 171 331Q171 218 212.5 161.5Q254 105 334 105Q371 105 410.5 116.5Q450 128 482 148L494 141L483 26Q407 -9 323 -9Q179 -9 103.5 75.0Q28 159 28 316Q28 476 108.5 564.0Q189 652 336 652Q430 652 505 613Z"/><path transform="translate(496.000 0.000)" d="M351 290Q352 326 336.0 345.0Q320 364 289 364Q244 364 193 321L191 205L198 0H65L72 193L66 692L199 702L194 399H200Q255 449 321 471Q397 471 436.5 436.5Q476 402 475 337L472 204L477 0H344Z"/><path transform="translate(998.000 0.000)" d="M343 464V341L329 336Q312 343 292 343Q234 343 187 268V205L194 0H61L69 192L63 456L189 467L188 376H196Q245 466 318 466Q327 466 343 464Z"/><path transform="translate(1321.000 0.000)" d="M70 192 65 456 196 467 190 205 196 0H63ZM199 625Q199 591 180.0 571.0Q161 551 128 551Q95 551 77.5 569.0Q60 587 60 620Q60 653 79.5 673.0Q99 693 133 693Q164 693 181.5 675.0Q199 657 199 625Z"/><path transform="translate(1557.000 0.000)" d="M345 450 327 352 311 347Q282 366 253.0 376.0Q224 386 202 386Q178 386 164.0 373.5Q150 361 150 343Q150 322 168.5 309.0Q187 296 227 280Q267 264 293.0 249.0Q319 234 337.5 207.5Q356 181 356 142Q356 102 335.5 67.5Q315 33 273.0 11.5Q231 -10 170 -10Q98 -10 21 20L36 124L49 132Q80 106 118.0 90.5Q156 75 185 75Q212 75 227.0 88.5Q242 102 242 121Q242 142 223.5 155.0Q205 168 165 184Q124 202 98.0 216.5Q72 231 53.5 258.0Q35 285 35 325Q35 390 84.0 431.5Q133 473 217 473Q285 473 345 450Z"/><path transform="translate(1916.000 0.000)" d="M316 115 327 105 314 26Q263 0 210 -6Q75 8 75 126L80 209L79 381H17L12 388L19 461H78V538L199 577L208 569L205 461H324L328 454L322 381H203L197 157Q197 125 209.0 111.5Q221 98 249 98Q281 98 316 115Z"/><path transform="translate(2355.000 0.000)" d="M431 101 422 0H74L81 192L74 644H212L204 204L207 112H423Z"/><path transform="translate(2756.000 0.000)" d="M464 241Q464 119 406.0 54.5Q348 -10 239 -10Q137 -10 83.0 50.0Q29 110 29 223Q29 345 87.0 409.5Q145 474 254 474Q356 474 410.0 414.0Q464 354 464 241ZM154 249Q154 157 176.0 118.0Q198 79 248 79Q296 79 317.5 110.5Q339 142 339 214Q339 305 316.5 344.5Q294 384 245 384Q197 384 175.5 352.0Q154 320 154 249Z"/><path transform="translate(3225.000 0.000)" d="M431 387 429 383Q444 353 444 316Q444 241 389.5 196.5Q335 152 242 152Q214 152 184 157Q175 148 172.0 143.0Q169 138 169 131Q169 113 193.0 106.0Q217 99 269 92Q328 85 367.5 75.0Q407 65 435.5 40.0Q464 15 464 -31Q464 -78 434.5 -115.5Q405 -153 353.0 -174.0Q301 -195 235 -195Q144 -195 95.0 -158.0Q46 -121 46 -60Q77 -17 129 15V20Q95 32 76.0 53.5Q57 75 57 111Q84 144 125 172V177Q89 197 70.5 229.5Q52 262 52 306Q52 384 106.0 428.0Q160 472 253 472Q307 472 351 454Q423 467 498 494L508 485V402Q481 395 431 387ZM329 314Q329 390 251 390Q167 390 167 313Q167 273 187.0 252.5Q207 232 246 232Q287 232 308.0 253.0Q329 274 329 314ZM236 -1 202 4Q178 -12 166.0 -27.0Q154 -42 154 -59Q154 -85 178.0 -101.0Q202 -117 248 -117Q295 -117 323.5 -100.5Q352 -84 352 -55Q352 -28 323.5 -18.0Q295 -8 236 -1Z"/><path transform="translate(3700.000 0.000)" d="M70 192 65 456 196 467 190 205 196 0H63ZM199 625Q199 591 180.0 571.0Q161 551 128 551Q95 551 77.5 569.0Q60 587 60 620Q60 653 79.5 673.0Q99 693 133 693Q164 693 181.5 675.0Q199 657 199 625Z"/><path transform="translate(3936.000 0.000)" d="M375 449 353 343 342 338Q291 366 251 366Q205 366 180.0 333.0Q155 300 155 239Q155 169 182.0 132.0Q209 95 259 95Q304 95 359 120L369 112L356 9Q296 -10 233 -10Q137 -10 83.0 52.5Q29 115 29 227Q29 343 88.0 408.5Q147 474 252 474Q285 474 317.5 467.5Q350 461 375 449Z"/></g></svg>